<?xml version="1.0" encoding="UTF-8"?>
<svg version="1.1" xmlns="http://www.w3.org/2000/svg" width="512" height="512">
<path d="M0 0 C2.0078125 0.328125 2.0078125 0.328125 3.74609375 1.5625 C6.2270755 5.03433824 5.30961113 9.24905304 5.0078125 13.328125 C4.69966251 14.99028241 4.3668095 16.64801562 4.01171875 18.30078125 C-2.54150459 53.34359083 9.55153144 84.70032436 24.69580078 115.48596191 C36.54738062 139.59176731 47.13241758 163.9211072 47.3828125 191.140625 C47.39683105 192.19064697 47.41084961 193.24066895 47.42529297 194.32250977 C47.32756294 210.16855671 41.06967441 222.2485073 30.0078125 233.328125 C29.25628906 234.09125 28.50476563 234.854375 27.73046875 235.640625 C23.10599146 240.07273635 18.20784465 243.69139803 12.7578125 247.015625 C11.81059326 247.59509888 11.81059326 247.59509888 10.84423828 248.1862793 C7.63708747 250.06408111 4.62050292 251.54202383 1.0390625 252.55859375 C-2.93257155 253.76075158 -5.74682151 254.72359292 -8.9921875 257.328125 C-11.23709692 262.4977689 -11.2654459 268.35069994 -11.71289062 273.89794922 C-13.46878873 289.17610455 -22.05134635 304.11544644 -33.90234375 313.67578125 C-63.00478318 334.85726511 -100.50393171 333.48039728 -134.87496018 333.48816776 C-138.46178639 333.49004561 -142.04860192 333.49760509 -145.63542175 333.50430298 C-153.44262801 333.51776733 -161.24982906 333.52388988 -169.05704498 333.52831364 C-173.93945929 333.53109172 -178.82187167 333.53533132 -183.70428467 333.53981781 C-197.25022252 333.55198607 -210.79615885 333.56229587 -224.34210205 333.5656929 C-225.20539958 333.56591247 -226.0686971 333.56613203 -226.95815516 333.56635825 C-228.25593905 333.56668567 -228.25593905 333.56668567 -229.5799408 333.5670197 C-231.3327535 333.56746315 -233.0855662 333.56790971 -234.83837891 333.56835938 C-236.14252275 333.56869152 -236.14252275 333.56869152 -237.47301292 333.56903037 C-251.5912637 333.57298678 -265.70946314 333.59047735 -279.82769406 333.6137189 C-294.35801368 333.63744445 -308.88830751 333.649895 -323.41864681 333.65106082 C-331.56321463 333.65197595 -339.70771517 333.65768912 -347.8522644 333.67588043 C-354.77770092 333.69129643 -361.70304927 333.69639236 -368.62849969 333.68814233 C-372.15794455 333.68424355 -375.68721188 333.68512808 -379.21663475 333.69919968 C-383.04830778 333.71433675 -386.87973269 333.70605106 -390.71142578 333.69561768 C-391.81784896 333.70367408 -392.92427214 333.71173048 -394.06422329 333.72003102 C-403.65509648 333.65904911 -412.80288071 332.13229035 -419.9921875 325.328125 C-426.36756845 318.08799823 -427.67941536 310.57348292 -427.3359375 301.0625 C-425.98767447 286.41546077 -411.33037674 275.80162823 -400.74609375 266.86328125 C-398.73385268 265.10201012 -396.86846764 263.23332661 -394.9921875 261.328125 C-391.88842796 258.18234164 -388.67342452 255.25518484 -385.32421875 252.375 C-382.32948142 249.74645333 -379.41256939 247.03871653 -376.4921875 244.328125 C-363.09547621 231.91358293 -363.09547621 231.91358293 -359.76171875 230.14453125 C-357.6053745 228.33192056 -357.6053745 228.33192056 -357.8203125 224.828125 C-357.94371766 223.32661025 -358.08588858 221.82657288 -358.2421875 220.328125 C-358.37497384 218.61637607 -358.50086444 216.90408296 -358.62109375 215.19140625 C-358.68699707 214.2576416 -358.75290039 213.32387695 -358.82080078 212.36181641 C-360.06938881 190.26074121 -361.20918601 163.85138587 -346.9921875 145.328125 C-340.42487033 138.05491578 -332.72949296 133.73365867 -322.9921875 132.328125 C-320.74108738 132.43143636 -318.49099215 132.55820203 -316.2421875 132.703125 C-309.66934985 132.778596 -306.77256209 131.44971837 -302.0078125 127.08203125 C-294.78135942 120.79389669 -284.22107866 121.00494413 -275.19482422 121.58984375 C-263.50896804 122.59784603 -254.84494209 127.69962169 -246.9921875 136.328125 C-245.26051376 138.62288061 -243.62531364 140.96052413 -241.9921875 143.328125 C-240.8990625 142.78285156 -239.8059375 142.23757812 -238.6796875 141.67578125 C-215.27200048 130.18786633 -190.91689056 120.28597158 -164.50390625 120.125 C-163.72701447 120.11798569 -162.95012268 120.11097137 -162.14968872 120.10374451 C-159.6596285 120.08635768 -157.16980617 120.07989327 -154.6796875 120.078125 C-153.8283725 120.07745026 -152.9770575 120.07677551 -152.09994507 120.07608032 C-139.49229193 120.09196702 -127.32998986 120.51722749 -114.9921875 123.328125 C-114.23099609 123.48909668 -113.46980469 123.65006836 -112.68554688 123.81591797 C-87.25503732 129.28106257 -65.07027138 140.82457349 -45.9921875 158.328125 C-45.30640625 158.93140625 -44.620625 159.5346875 -43.9140625 160.15625 C-22.41177191 180.05089269 -12.52188161 210.99555097 -9.9921875 239.328125 C4.31402669 235.62824202 18.99173274 225.21195325 26.79296875 212.61328125 C31.65491888 203.46781235 32.56409762 193.863337 31.3203125 183.703125 C31.22637207 182.92243652 31.13243164 182.14174805 31.03564453 181.33740234 C28.41278512 161.22608566 19.98429785 143.17635831 11.1328125 125.140625 C1.99195114 106.5037072 -6.23677605 87.60119488 -10.9921875 67.328125 C-11.22421875 66.34328125 -11.45625 65.3584375 -11.6953125 64.34375 C-15.12230234 47.79628477 -14.38202052 30.65096503 -11.6171875 14.078125 C-11.50342773 13.37502197 -11.38966797 12.67191895 -11.27246094 11.94750977 C-9.81369149 3.9408105 -8.14201569 0.30044338 0 0 Z M-192.9921875 139.328125 C-193.73355957 139.5535498 -194.47493164 139.77897461 -195.23876953 140.01123047 C-216.97714202 146.84302536 -237.40378861 157.95394778 -256.66748047 169.95458984 C-258.75153127 171.18593513 -260.82339309 172.22827932 -263.02734375 173.22265625 C-266.55737677 174.98560841 -268.6606781 176.13612038 -270.9921875 179.328125 C-272.27438561 185.07808952 -271.60536146 190.99722335 -271.14257812 196.81445312 C-270.923693 200.47296163 -271.15297103 203.98505484 -271.4296875 207.640625 C-271.55150391 209.33638672 -271.55150391 209.33638672 -271.67578125 211.06640625 C-272.00948502 214.50643894 -272.47679734 217.91095834 -272.9921875 221.328125 C-274.42753591 221.5507996 -275.86564275 221.75574406 -277.3046875 221.953125 C-278.10519531 222.06914062 -278.90570313 222.18515625 -279.73046875 222.3046875 C-281.9921875 222.328125 -281.9921875 222.328125 -284.9921875 220.328125 C-286.18673753 215.18187434 -285.88700349 210.34775148 -285.4296875 205.140625 C-284.2005483 187.52173466 -285.55512846 169.55760884 -296.9921875 155.328125 C-303.52687239 149.12017435 -310.92262228 146.87115417 -319.8515625 147.05859375 C-326.90709701 147.94697309 -332.12677142 151.53083214 -336.4921875 157.0078125 C-348.469996 175.53598502 -345.27413161 204.42801258 -342.47265625 225.17578125 C-341.97511423 230.63547565 -341.94269803 233.97560186 -345.38671875 238.4140625 C-348.38209906 241.32426612 -351.66104438 243.81537383 -354.9921875 246.328125 C-356.37907535 247.52279506 -357.75603793 248.72921067 -359.1171875 249.953125 C-359.74367188 250.49710937 -360.37015625 251.04109375 -361.015625 251.6015625 C-369.13790345 258.69651719 -377.06735536 266.01413653 -384.9921875 273.328125 C-385.59256836 273.88193848 -386.19294922 274.43575195 -386.81152344 275.00634766 C-402.31395717 287.07409717 -402.31395717 287.07409717 -412.23046875 302.28125 C-412.40927549 307.814848 -411.86006429 311.05310329 -407.9921875 315.328125 C-402.36593635 319.14907545 -396.81710015 318.7458337 -390.27078247 318.7023468 C-389.08202511 318.70632121 -387.89326774 318.71029561 -386.66848743 318.71439046 C-383.37612748 318.72234272 -380.08428928 318.71685829 -376.79197192 318.70563996 C-373.23738104 318.69678819 -369.6828254 318.70524497 -366.12823486 318.71150208 C-359.16261365 318.72099169 -352.19709605 318.7143858 -345.23148252 318.70223913 C-337.10100029 318.68859299 -328.97054253 318.69025976 -320.84005176 318.69237246 C-306.30919954 318.69556355 -291.77839628 318.6838951 -277.24755859 318.66430664 C-263.19285587 318.64536531 -249.13821067 318.63820242 -235.08349609 318.64379883 C-219.75631433 318.64988394 -204.42915788 318.64962501 -189.10197818 318.638313 C-187.46035886 318.63710586 -185.81873953 318.63589987 -184.17712021 318.63469505 C-182.96586811 318.63378975 -182.96586811 318.63378975 -181.73014627 318.63286615 C-176.0847341 318.629014 -170.43933145 318.6293703 -164.79391861 318.6312809 C-157.88433203 318.63342391 -150.97479538 318.62802391 -144.06522276 318.61366735 C-140.55037333 318.60651792 -137.03559585 318.60226292 -133.52074051 318.60691071 C-82.75064579 319.66412897 -82.75064579 319.66412897 -38.9921875 297.328125 C-24.79426612 280.39248784 -23.40003954 258.89270986 -25.21484375 237.73193359 C-28.57179875 207.64345141 -41.97682535 180.65426997 -65.484375 161.2734375 C-67.92388023 159.49103806 -70.40942698 157.89609876 -72.9921875 156.328125 C-73.81614014 155.81088867 -73.81614014 155.81088867 -74.65673828 155.28320312 C-95.23313034 142.45838194 -119.89421948 135.35105599 -144.1640625 135.08984375 C-144.92012787 135.08000458 -145.67619324 135.07016541 -146.45516968 135.06002808 C-170.00452309 134.7381417 -170.00452309 134.7381417 -192.9921875 139.328125 Z M-291.9921875 139.328125 C-290.9403125 140.318125 -290.9403125 140.318125 -289.8671875 141.328125 C-283.17816478 148.09251699 -279.02027277 155.75773081 -274.9921875 164.328125 C-268.25605726 160.43239635 -261.56270383 156.49787575 -254.9921875 152.328125 C-259.51054299 144.47234784 -264.13518919 139.55115785 -272.9921875 137.015625 C-280.05720179 135.5777356 -285.52129565 136.09267908 -291.9921875 139.328125 Z " fill="#000000" transform="translate(445.9921875,89.671875)"/>
<path d="M0 0 C4.33513746 3.87578515 7.52701321 8.16437278 8.25 14.02734375 C8.56835283 19.84723143 7.42713705 24.25779873 4 29 C0.29031586 32.87830615 -2.95176921 35.75116483 -8.48828125 36.203125 C-15.77176915 36.32401277 -20.03247217 35.55345418 -25.6875 30.6875 C-30.14579178 25.50624199 -31.58138083 21.2850326 -31.34765625 14.52734375 C-30.59444128 9.05172482 -28.21368424 4.81557551 -24.125 1.125 C-16.5248067 -4.04313144 -8.0230049 -4.63804543 0 0 Z M-14.75 13.1875 C-16.29839423 15.00671447 -16.29839423 15.00671447 -15.6875 17.6875 C-15.460625 18.450625 -15.23375 19.21375 -15 20 C-12.65466049 20.76956136 -12.65466049 20.76956136 -10 21 C-8.01970318 19.93654948 -8.01970318 19.93654948 -7 18 C-7.27036147 15.02602384 -7.85446026 14.14553974 -10 12 C-12.9387397 11.71924929 -12.9387397 11.71924929 -14.75 13.1875 Z " fill="#000000" transform="translate(132,334)"/>
<path d="M0 0 C1.34589455 -0.00006042 1.34589455 -0.00006042 2.71897888 -0.00012207 C4.61277281 0.00523225 6.50656623 0.02281136 8.40014648 0.05175781 C11.30195817 0.0936542 14.20145219 0.09282317 17.10351562 0.0859375 C18.94402657 0.09642868 20.78452555 0.10936639 22.625 0.125 C23.92818932 0.12530212 23.92818932 0.12530212 25.25770569 0.12561035 C26.06541916 0.14152222 26.87313263 0.15743408 27.70532227 0.17382812 C28.41495621 0.18224731 29.12459015 0.1906665 29.85572815 0.19934082 C32.30022239 0.70936437 33.20740462 1.66506033 34.74609375 3.59375 C35.30205287 6.29723746 35.17782219 8.8727247 34.74609375 11.59375 C33.20271284 13.76851401 32.10944102 14.41207637 29.74609375 15.59375 C27.0331277 15.71709212 24.3468516 15.7821501 21.6328125 15.796875 C20.8262471 15.80257507 20.0196817 15.80827515 19.18867493 15.81414795 C17.47971917 15.82360195 15.77074515 15.83013352 14.06176758 15.83398438 C11.45426334 15.8436732 8.84755297 15.874685 6.24023438 15.90625 C4.57943176 15.91278185 2.91862351 15.91803161 1.2578125 15.921875 C0.09193855 15.9403952 0.09193855 15.9403952 -1.0974884 15.95928955 C-5.64136808 15.94070938 -8.70996379 15.5384587 -12.25390625 12.59375 C-13.31640625 9.21875 -13.31640625 9.21875 -13.25390625 5.59375 C-10.04662784 -0.45717977 -6.18950763 -0.11707693 0 0 Z " fill="#000000" transform="translate(296.25390625,383.40625)"/>
</svg>
